<svg xmlns="http://www.w3.org/2000/svg" viewBox="0 0 48 48" role="img" aria-label="Alipay">
  <rect width="48" height="48" rx="14" fill="#1677ff"/>
  <path fill="#fff" d="M13 13h22a2 2 0 0 1 2 2v18.2c0 1.1-.9 2-2 2H13a2 2 0 0 1-2-2V15c0-1.1.9-2 2-2Z"/>
  <path fill="#1677ff" d="M16.1 22.3h15.8v3H29c-.9 2.4-2.2 4.5-4 6.1 2.4 1 5.2 1.6 8.4 1.9l-1.1 3.1c-4-.5-7.4-1.5-10.2-3-2.4 1.4-5.3 2.4-8.6 3l-1.2-2.9c2.6-.4 4.9-1.1 6.8-2-1.4-1.2-2.5-2.6-3.5-4.2l2.8-1.1a13 13 0 0 0 3.5 3.5 10.9 10.9 0 0 0 3.6-4.4h-9.4v-3Zm6.2-7.4h3.4v2.5h8.1v3H14.2v-3h8.1v-2.5Z"/>
</svg>
