<svg xmlns="http://www.w3.org/2000/svg" viewBox="0 0 48 48" role="img" aria-label="WeChat Pay">
  <rect width="48" height="48" rx="14" fill="#16a34a"/>
  <path fill="#fff" d="M20.3 15.2c-6.2 0-11.1 3.9-11.1 8.7 0 2.8 1.7 5.3 4.4 6.9l-.9 3.2 3.8-1.9c1.2.3 2.4.5 3.8.5h.9a9.4 9.4 0 0 1-.5-3c0-5 4.7-9.1 10.8-9.8-1.7-2.7-6-4.6-11.2-4.6Z"/>
  <path fill="#dcfce7" d="M31.2 22.5c-5 0-9 3.1-9 7 0 3.8 4 6.9 9 6.9 1 0 2-.1 2.9-.4l3.1 1.6-.7-2.6c2.2-1.3 3.7-3.3 3.7-5.5 0-3.9-4-7-9-7Z"/>
  <circle cx="16.6" cy="22.8" r="1.6" fill="#16a34a"/>
  <circle cx="24.2" cy="22.8" r="1.6" fill="#16a34a"/>
  <circle cx="28.4" cy="29.2" r="1.3" fill="#16a34a"/>
  <circle cx="34.6" cy="29.2" r="1.3" fill="#16a34a"/>
</svg>
